<svg xmlns="http://www.w3.org/2000/svg" version="1.1" xmlns:xlink="http://www.w3.org/1999/xlink" width="512" height="512" x="0" y="0" viewBox="0 0 512 512" style="enable-background:new 0 0 512 512" xml:space="preserve" class=""><g><path d="M418.673 412.518c0 16.636-13.486 30.122-30.122 30.122H40.122C23.486 442.64 10 429.154 10 412.518V99.482C10 82.846 23.486 69.36 40.122 69.36H388.55c16.636 0 30.122 13.486 30.122 30.122v313.036z" style="" fill="#ffffff" data-original="#ffffff" class=""></path><path d="M418.673 109.53 217.592 310.61a45 45 0 0 0-11.112 18.333l-17.601 56.028a44.998 44.998 0 0 0 34.396 57.669h17.077a44.974 44.974 0 0 0 4.945-1.251l56.028-17.601a44.993 44.993 0 0 0 18.333-11.112l99.014-99.014V109.53z" style="" fill="#d2dcfd" data-original="#d2dcfd"></path><path d="m287.839 380.857-56.028 17.601 17.601-56.028 208.279-208.279c7.842-7.842 20.557-7.842 28.4 0l10.027 10.027c7.842 7.842 7.842 20.557 0 28.4L287.839 380.857z" style="" fill="#fdcb50" data-original="#fdcb50"></path><path d="m496.118 144.178-10.027-10.027c-7.842-7.843-20.557-7.843-28.4 0l-20.826 20.826 38.427 38.427 20.826-20.826c7.843-7.842 7.843-20.557 0-28.4z" style="" fill="#6864f7" data-original="#6864f7"></path><path d="M388.55 69.36H40.122C23.486 69.36 10 82.846 10 99.482v58.237h360.483l48.189-10.001V99.482c.001-16.636-13.486-30.122-30.122-30.122z" style="" fill="#67ccd1" data-original="#67ccd1" class=""></path><path d="M418.673 157.719V109.53l-48.19 48.189z" style="" fill="#27a2cc" data-original="#27a2cc"></path><path d="M54.185 201.899h154.627v44.18H54.185zM231.811 398.458H54.185v-44.18H245.69" style="stroke-width:20;stroke-linejoin:round;stroke-miterlimit:10;" fill="none" stroke="#6864f7" stroke-width="20" stroke-linejoin="round" stroke-miterlimit="10" data-original="#6864f7"></path><path d="M387.935 201.899H252.994M343.753 246.081h-90.759" style="stroke-width:20;stroke-linecap:round;stroke-linejoin:round;stroke-miterlimit:10;" fill="none" stroke="#6864f7" stroke-width="20" stroke-linecap="round" stroke-linejoin="round" stroke-miterlimit="10" data-original="#6864f7"></path><path d="M418.673 250.024v162.494c0 16.636-13.486 30.122-30.122 30.122H40.122C23.486 442.64 10 429.154 10 412.518V99.482C10 82.846 23.486 69.36 40.122 69.36H388.55c16.636 0 30.122 13.486 30.122 30.122v73.687" style="stroke-width:20;stroke-linejoin:round;stroke-miterlimit:10;" fill="none" stroke="#052a75" stroke-width="20" stroke-linejoin="round" stroke-miterlimit="10" data-original="#052a75" class=""></path><path d="m287.839 380.857-56.028 17.601 17.601-56.028 208.279-208.279c7.842-7.842 20.557-7.842 28.4 0l10.027 10.027c7.842 7.842 7.842 20.557 0 28.4L287.839 380.857z" style="stroke-width:20;stroke-linejoin:round;stroke-miterlimit:10;" fill="none" stroke="#052a75" stroke-width="20" stroke-linejoin="round" stroke-miterlimit="10" data-original="#052a75" class=""></path><path d="M54.185 118.537h0M98.364 118.537h0M142.544 118.537h0M374.493 118.537h-143.59" style="stroke-width:20;stroke-linecap:round;stroke-linejoin:round;stroke-miterlimit:10;" fill="none" stroke="#ffffff" stroke-width="20" stroke-linecap="round" stroke-linejoin="round" stroke-miterlimit="10" data-original="#ffffff"></path></g></svg>